<svg enable-background="new 0 0 386.9 500" height="359.442577" viewBox="0 0 386.9 500" width="278.208555" xmlns="http://www.w3.org/2000/svg" xmlns:xlink="http://www.w3.org/1999/xlink"><linearGradient id="a" gradientTransform="matrix(1 0 0 -1 0 502)" gradientUnits="userSpaceOnUse" x1="140.563" x2="246.2012" y1="172.2786" y2="172.2786"><stop offset="0" stop-color="#31ecff"/><stop offset=".04937099" stop-color="#2de2ff"/><stop offset=".2964" stop-color="#1bb2ff"/><stop offset=".5147" stop-color="#0e90ff"/><stop offset=".694" stop-color="#067bff"/><stop offset=".8118" stop-color="#0373ff"/></linearGradient><linearGradient id="b" gradientTransform="matrix(1 0 0 -1 0 502)" gradientUnits="userSpaceOnUse" x1="271.6797" x2="177.5109" y1="430.3915" y2="171.665"><stop offset="0" stop-color="#31ecff"/><stop offset=".04882737" stop-color="#2de2ff"/><stop offset=".2932" stop-color="#1bb2ff"/><stop offset=".5091" stop-color="#0e90ff"/><stop offset=".6863" stop-color="#067bff"/><stop offset=".8028" stop-color="#0373ff"/></linearGradient><path d="m.1 0h386.8v500h-386.8z" fill="#fff"/><path d="m0 486.6h129.1v13.4h-129.1z" fill="#00b74f"/><path d="m128.9 486.6h129.1v13.4h-129.1z" fill="#e3e3e3"/><path d="m257.8 486.6h129.1v13.4h-129.1z" fill="#e5002b"/><g fill="#1a1659"><path d="m55 451.8c-.3-.3-.5-1-.1-1.4l6.3-7.2c.3-.4.8-.4 1.2-.1 3.7 3 8.7 5.7 14.7 5.7 5.8 0 9.1-2.7 9.1-6.7 0-3.3-2-5.3-8.7-6.3l-3-.4c-11.4-1.6-17.7-6.9-17.7-16.7 0-10.3 7.7-17.1 19.8-17.1 7.3 0 14.3 2.2 19 5.8.5.3.5.7.1 1.2l-5 7.5c-.3.4-.7.5-1.1.3-4.2-2.9-8.4-4.2-13-4.2-4.9 0-7.5 2.6-7.5 6.1 0 3.3 2.3 5.3 8.7 6.1l3 .4c11.6 1.6 17.7 6.8 17.7 17 0 10.1-7.5 17.7-22 17.7-8.7-.1-17.2-3.5-21.5-7.7z"/><path d="m105 403.4c0-.5.3-.8.8-.8h35.9c.5 0 .8.3.8.8v8.8c0 .5-.3.8-.8.8h-24.2c-.3 0-.5.1-.5.5v11.1c0 .3.1.5.5.5h20.1c.5 0 .8.3.8.8v8.7c0 .5-.3.8-.8.8h-20.1c-.3 0-.5.1-.5.5v11.6c0 .3.1.5.5.5h24.1c.5 0 .8.3.8.8v8.8c0 .5-.3.8-.8.8h-35.8c-.5 0-.8-.3-.8-.8z"/><path d="m180.7 458.4c-.7 0-1-.3-1.2-.8l-9.7-20.5h-7.5c-.3 0-.5.1-.5.5v20c0 .5-.3.8-.8.8h-10.5c-.5 0-.8-.3-.8-.8v-54.4c0-.5.3-.8.8-.8h22.3c11.4 0 19 7.2 19 17.4 0 7.2-3.8 12.8-9.9 15.5l11 22c.3.5 0 1-.5 1h-11.7zm-.8-38.4c0-4.2-3-6.9-7.6-6.9h-9.9c-.3 0-.5.1-.5.5v12.9c0 .3.1.5.5.5h9.9c4.6-.1 7.6-2.8 7.6-7z"/><path d="m199.5 403.4c0-.5.3-.8.8-.8h10.5c.5 0 .8.3.8.8v54.4c0 .5-.3.8-.8.8h-10.3c-.5 0-.8-.3-.8-.8v-54.4z"/><path d="m220.7 403.4c0-.5.3-.8.8-.8h35.9c.5 0 .8.3.8.8v8.8c0 .5-.3.8-.8.8h-24.1c-.3 0-.5.1-.5.5v11.1c0 .3.1.5.5.5h20.1c.5 0 .8.3.8.8v8.7c0 .5-.3.8-.8.8h-20.1c-.3 0-.5.1-.5.5v11.6c0 .3.1.5.5.5h24.1c.5 0 .8.3.8.8v8.8c0 .5-.3.8-.8.8h-35.9c-.5 0-.8-.3-.8-.8z"/><path d="m298.4 403.4c.1-.5.5-.8 1.1-.8h10.3c.5 0 1 .3 1.1.8l18.9 54.4c.1.5 0 .8-.5.8h-10.7c-.5 0-1-.3-1.1-.8l-3.3-9.8h-19.6l-3.1 9.8c-.1.5-.5.8-1.1.8h-10.7c-.5 0-.7-.3-.5-.8zm12.5 34.2-6.4-19.6h-.3l-6.4 19.6z"/><path d="m193.4 372.9-136.2-86.4h83.4z"/><path d="m193.4 372.9 136.3-86.4h-83.5z"/><path d="m193.4 147.1-52.8 139.4h52.8 52.8z"/></g><path d="m140.6 286.5 52.8 86.4 52.8-86.4z" fill="url(#a)"/><path d="m193.4 147.1 22.8 60.2h-28.8l-19.6 51.9h68l10.3 27.4h83.5l-98.6-229.8c-25.1 0-50.1 0-75.2 0l-98.6 229.7h83.5z" fill="url(#b)"/></svg>